<?xml version="1.0" encoding="utf-8"?>
<!-- Generator: Adobe Illustrator 23.0.1, SVG Export Plug-In . SVG Version: 6.00 Build 0)  -->
<svg version="1.1" id="Layer_1" xmlns="http://www.w3.org/2000/svg" xmlns:xlink="http://www.w3.org/1999/xlink" x="0px" y="0px"
	 viewBox="0 0 3800 420" style="enable-background:new 0 0 3800 420;" xml:space="preserve">
<style type="text/css">
	.st0{fill-rule:evenodd;clip-rule:evenodd;fill:#FFFFFF;}
</style>
<path id="fib_mask_1" class="st0" d="M3800-1v378H512.9l-54.7-2l-39-2.3c-7.4-0.9-15.5-0.8-23.3-1.8c-17.5-2.3-36.2-3.3-52.8-5.8
	c-20.8-3.1-40.6-5-59.4-9.1c-26.9-5.9-53.2-11.6-76.5-19.4c-57.6-19.2-101-44.3-137.3-74.8c-21.9-18.5-39.5-38.4-52.3-59.2
	c-4.1-6.6-6.2-13.6-9.5-20.4l-1.4-5.8C3.1,168.5,2,159,2,149.7v-11.1l2.4-14.9C9,113.3,10.3,103,16.3,93.5
	c9-14.4,20.2-27.7,35.2-39.1c5.3-4,11.5-7.7,17.1-11.6l4.8-2.3c5.1-3.4,11-6.5,17.6-9.1c2-0.8,3.6-2.2,5.7-3
	c10.6-4.2,21.4-8.5,32.8-12.3c4.2-1.4,8.6-2.2,12.8-3.5c13.7-4.4,28.8-7.4,44.7-10.8c4.2-1,8.5-2,12.8-2.8H3800z"/>
</svg>
